<?xml version="1.0" encoding="UTF-8" standalone="no"?>
<!DOCTYPE svg PUBLIC "-//W3C//DTD SVG 1.1//EN" "http://www.w3.org/Graphics/SVG/1.1/DTD/svg11.dtd">
<!-- Created with Vectornator (http://vectornator.io/) -->
<svg height="100%" stroke-miterlimit="10" style="fill-rule:nonzero;clip-rule:evenodd;stroke-linecap:round;stroke-linejoin:round;" version="1.1" viewBox="0 0 740.656 516.58" width="100%" xml:space="preserve" xmlns="http://www.w3.org/2000/svg" xmlns:vectornator="http://vectornator.io" xmlns:xlink="http://www.w3.org/1999/xlink">
<defs/>
<g id="Untitled" vectornator:layerName="Untitled">
<g opacity="1" vectornator:layerName="g">
<path d="M310.656 28C310.656 23.58 314.236 20 318.656 20L442.656 20C447.076 20 450.656 23.58 450.656 28L450.656 111.68C450.656 116.1 447.076 119.68 442.656 119.68L318.656 119.68C314.236 119.68 310.656 116.1 310.656 111.68L310.656 28Z" fill="#08088c" fill-rule="nonzero" opacity="1" stroke="#000000" stroke-linecap="butt" stroke-linejoin="miter" stroke-opacity="0" stroke-width="2" vectornator:layerName="path"/>
<g opacity="1" vectornator:layerName="a">
<path d="M328.931 49.5C333.581 49.55 339.231 48.7 339.131 53.45C339.081 57.2 335.681 57.85 331.531 57.55L331.531 61.9L328.931 61.9L328.931 49.5ZM331.531 55.55C333.881 55.55 336.531 55.9 336.531 53.5C336.531 51.15 333.831 51.55 331.531 51.55L331.531 55.55" fill="#ffffff" fill-rule="nonzero" opacity="1" stroke="none" vectornator:layerName="path"/>
<path d="M340.981 61.9L340.981 48.85L343.481 48.85L343.481 61.9L340.981 61.9" fill="#ffffff" fill-rule="nonzero" opacity="1" stroke="none" vectornator:layerName="path"/>
<path d="M351.381 60.2C350.581 61.15 349.881 62.15 348.181 62.1C346.331 62.05 345.281 61.1 345.281 59.2C345.231 56.2 348.031 56.05 351.081 56.15C351.131 54.85 350.931 53.8 349.681 53.8C348.781 53.85 348.381 54.25 348.281 55.15L345.681 55.05C346.031 53.15 347.481 52.15 349.781 52.2C352.081 52.25 353.481 53.3 353.531 55.6L353.581 59.7C353.531 60.4 354.181 60.6 354.831 60.45L354.831 61.8C353.331 62.2 351.281 62.05 351.381 60.2ZM348.981 60.35C350.431 60.35 351.131 59.15 351.081 57.5C349.481 57.5 347.781 57.35 347.831 59C347.831 59.85 348.231 60.35 348.981 60.35" fill="#ffffff" fill-rule="nonzero" opacity="1" stroke="none" vectornator:layerName="path"/>
<path d="M360.881 62.4C360.131 64.55 358.731 66.2 355.681 65.5L355.681 63.75C357.431 64.15 358.331 63.2 358.631 61.8L354.881 52.4L357.481 52.4L359.881 59.8C360.481 57.2 361.281 54.8 362.081 52.4L364.631 52.4" fill="#ffffff" fill-rule="nonzero" opacity="1" stroke="none" vectornator:layerName="path"/>
</g>
<g opacity="1" vectornator:layerName="b">
<path d="M376.481 54.4C374.531 53.8 373.481 55.05 373.481 57.25L373.481 61.9L370.981 61.9L370.931 52.4L373.281 52.4C373.381 53.05 373.231 53.85 373.431 54.4C373.731 53 374.781 51.75 376.481 52.35L376.481 54.4" fill="#ffffff" fill-rule="nonzero" opacity="1" stroke="none" vectornator:layerName="path"/>
<path d="M385.981 59.5C385.331 61 384.131 62.15 381.881 62.1C378.881 62 377.431 60.25 377.431 57.1C377.431 53.95 378.931 52.2 381.931 52.2C385.031 52.2 386.081 54.45 386.131 57.6L380.031 57.6C380.031 59.15 380.431 60.35 381.981 60.4C382.881 60.4 383.481 60.05 383.681 59.3L385.981 59.5ZM383.731 56.05C383.981 53.75 380.881 52.9 380.231 55C380.131 55.3 380.031 55.65 380.031 56.05L383.731 56.05" fill="#ffffff" fill-rule="nonzero" opacity="1" stroke="none" vectornator:layerName="path"/>
<path d="M390.931 62.1C388.331 62.1 387.481 59.85 387.481 57.15C387.481 54.4 388.381 52.2 391.131 52.2C392.581 52.2 393.481 52.8 394.031 53.9L394.131 52.4L396.531 52.4L396.481 65.65L394.031 65.65L394.031 60.3C393.531 61.45 392.431 62.1 390.931 62.1ZM391.981 60.4C393.581 60.4 394.031 58.95 394.031 57.1C394.031 55.3 393.581 53.9 392.031 53.9C390.381 53.9 390.081 55.4 390.031 57.15C390.031 59.3 390.681 60.4 391.981 60.4" fill="#ffffff" fill-rule="nonzero" opacity="1" stroke="none" vectornator:layerName="path"/>
<path d="M401.931 62.1C397.581 62.15 399.031 56.45 398.781 52.4L401.281 52.4C401.631 55.25 400.131 59.9 402.931 60.25C405.931 60 404.681 55.4 404.931 52.4L407.431 52.4L407.481 61.9L405.131 61.9C405.031 61.3 405.181 60.5 404.981 60C404.381 61.25 403.581 62.1 401.931 62.1" fill="#ffffff" fill-rule="nonzero" opacity="1" stroke="none" vectornator:layerName="path"/>
<path d="M417.881 59.5C417.231 61 416.031 62.15 413.781 62.1C410.781 62 409.331 60.25 409.331 57.1C409.331 53.95 410.831 52.2 413.831 52.2C416.931 52.2 417.981 54.45 418.031 57.6L411.931 57.6C411.931 59.15 412.331 60.35 413.881 60.4C414.781 60.4 415.381 60.05 415.581 59.3L417.881 59.5ZM415.631 56.05C415.881 53.75 412.781 52.9 412.131 55C412.031 55.3 411.931 55.65 411.931 56.05L415.631 56.05" fill="#ffffff" fill-rule="nonzero" opacity="1" stroke="none" vectornator:layerName="path"/>
<path d="M425.481 55C425.531 53.55 421.981 53.3 421.931 54.8C422.681 57.1 427.831 55.15 427.881 59.1C427.931 63.25 419.681 62.9 419.281 59.55L421.431 59.2C421.631 60.15 422.431 60.45 423.631 60.45C425.281 60.85 426.481 58.95 424.831 58.4C422.681 57.7 419.731 57.85 419.631 55.1C419.531 51.1 427.331 51.4 427.681 54.75" fill="#ffffff" fill-rule="nonzero" opacity="1" stroke="none" vectornator:layerName="path"/>
<path d="M434.381 61.75C432.581 62.45 430.031 62.1 430.031 59.65L430.031 54.05L428.831 54.05L428.831 52.4L430.181 52.4L430.931 50.15L432.481 50.15L432.481 52.4L434.281 52.4L434.281 54.05L432.481 54.05L432.481 59C432.431 60.15 433.281 60.55 434.381 60.25L434.381 61.75" fill="#ffffff" fill-rule="nonzero" opacity="1" stroke="none" vectornator:layerName="path"/>
</g>
<g opacity="1" vectornator:layerName="c">
<path d="M351.431 76C349.481 75.4 348.431 76.65 348.431 78.85L348.431 83.5L345.931 83.5L345.881 74L348.231 74C348.331 74.65 348.181 75.45 348.381 76C348.681 74.6 349.731 73.35 351.431 73.95L351.431 76" fill="#ffffff" fill-rule="nonzero" opacity="1" stroke="none" vectornator:layerName="path"/>
<path d="M360.931 81.1C360.281 82.6 359.081 83.75 356.831 83.7C353.831 83.6 352.381 81.85 352.381 78.7C352.381 75.55 353.881 73.8 356.881 73.8C359.981 73.8 361.031 76.05 361.081 79.2L354.981 79.2C354.981 80.75 355.381 81.95 356.931 82C357.831 82 358.431 81.65 358.631 80.9L360.931 81.1ZM358.681 77.65C358.931 75.35 355.831 74.5 355.181 76.6C355.081 76.9 354.981 77.25 354.981 77.65L358.681 77.65" fill="#ffffff" fill-rule="nonzero" opacity="1" stroke="none" vectornator:layerName="path"/>
<path d="M371.181 80.35C370.831 82.45 369.281 83.7 366.881 83.7C363.931 83.7 362.681 81.8 362.381 78.8C361.781 73.3 370.081 71.95 371.081 77L368.631 77.1C368.531 76.15 367.881 75.5 366.881 75.5C365.381 75.5 365.131 76.9 364.981 78.7C364.681 82.4 368.231 83.05 368.681 80.2" fill="#ffffff" fill-rule="nonzero" opacity="1" stroke="none" vectornator:layerName="path"/>
<path d="M380.931 81.1C380.281 82.6 379.081 83.75 376.831 83.7C373.831 83.6 372.381 81.85 372.381 78.7C372.381 75.55 373.881 73.8 376.881 73.8C379.981 73.8 381.031 76.05 381.081 79.2L374.981 79.2C374.981 80.75 375.381 81.95 376.931 82C377.831 82 378.431 81.65 378.631 80.9L380.931 81.1ZM378.681 77.65C378.931 75.35 375.831 74.5 375.181 76.6C375.081 76.9 374.981 77.25 374.981 77.65L378.681 77.65" fill="#ffffff" fill-rule="nonzero" opacity="1" stroke="none" vectornator:layerName="path"/>
<path d="M382.931 72.3L382.931 70.45L385.431 70.45L385.431 72.3L382.931 72.3ZM382.931 83.5L382.931 74L385.431 74L385.431 83.5L382.931 83.5" fill="#ffffff" fill-rule="nonzero" opacity="1" stroke="none" vectornator:layerName="path"/>
<path d="M393.081 83.5L390.131 83.5L386.731 74L389.381 74L391.631 81.5L394.031 74L396.631 74" fill="#ffffff" fill-rule="nonzero" opacity="1" stroke="none" vectornator:layerName="path"/>
<path d="M405.931 81.1C405.281 82.6 404.081 83.75 401.831 83.7C398.831 83.6 397.381 81.85 397.381 78.7C397.381 75.55 398.881 73.8 401.881 73.8C404.981 73.8 406.031 76.05 406.081 79.2L399.981 79.2C399.981 80.75 400.381 81.95 401.931 82C402.831 82 403.431 81.65 403.631 80.9L405.931 81.1ZM403.681 77.65C403.931 75.35 400.831 74.5 400.181 76.6C400.081 76.9 399.981 77.25 399.981 77.65L403.681 77.65" fill="#ffffff" fill-rule="nonzero" opacity="1" stroke="none" vectornator:layerName="path"/>
<path d="M411.081 73.8C412.631 73.75 413.381 74.55 413.981 75.5L413.931 70.45L416.431 70.45L416.481 83.5L414.081 83.5C413.981 83 414.081 82.35 413.931 81.95C413.381 83.1 412.481 83.7 410.881 83.7C408.281 83.7 407.481 81.45 407.431 78.75C407.431 75.95 408.381 73.9 411.081 73.8ZM411.931 82C413.581 82 413.931 80.5 413.981 78.7C414.031 76.85 413.531 75.5 411.931 75.5C410.331 75.5 410.031 77 409.981 78.75C409.981 80.9 410.631 82 411.931 82" fill="#ffffff" fill-rule="nonzero" opacity="1" stroke="none" vectornator:layerName="path"/>
</g>
<path d="M422.406 70.74C427.506 73.08 430.806 78.48 430.806 84.66C430.806 91.74 426.406 97.8 420.306 99.36L418.306 99.84L346.006 99.84C337.606 99.84 330.806 92.22 330.806 83.04C330.806 73.86 337.606 66.24 346.006 66.24C346.706 66.24 347.106 66.24 347.806 66.42C350.306 61.98 354.606 59.46 359.406 59.46C360.706 59.46 361.906 59.64 363.206 60.06L363.206 59.46C363.206 48.54 371.106 39.84 381.006 39.84C387.806 39.84 394.106 44.4 397.006 51.24C399.506 49.62 402.406 48.72 405.406 48.72C414.906 48.72 422.606 57.24 422.606 67.68C422.706 68.64 422.606 69.6 422.406 70.74Z" fill="#ffffff" fill-opacity="0.2" fill-rule="nonzero" opacity="1" stroke="#000000" stroke-linecap="butt" stroke-linejoin="miter" stroke-opacity="0" stroke-width="1" vectornator:layerName="path"/>
<path d="M661.896 365.92L664.896 367.16L667.496 369.16L669.496 371.76L670.736 374.76L671.156 377.96L671.156 400.52L670.156 400.52L670.156 378.02L669.756 375.02L668.616 372.26L666.786 369.86L664.386 368.04L661.636 366.9L658.636 366.5L619.136 366.5L619.136 365.5L658.686 365.5M462.366 366.5L462.366 365.5L474.186 365.5L474.186 366.5" fill="#333333" fill-rule="nonzero" opacity="1" stroke="none" vectornator:layerName="path"/>
<path d="M462.386 366.5L461.846 366.5L461.886 365.5L462.386 365.5M670.656 415.28L666.016 401.02L675.296 401.02L670.656 415.28Z" fill="#333333" fill-rule="nonzero" opacity="1" stroke="none" vectornator:layerName="path"/>
<path d="M670.656 416.9L665.336 400.52L675.976 400.52M666.706 401.52L670.656 413.66L674.606 401.52" fill="#333333" fill-rule="nonzero" opacity="1" stroke="none" vectornator:layerName="path"/>
<g opacity="1" vectornator:layerName="d">
<path d="M480.48 364.704L480.48 369.111L478.233 369.111L478.233 364.704L474.431 358.395L476.764 358.395L479.357 362.932L481.949 358.395L484.283 358.395" fill="#333333" fill-rule="nonzero" opacity="1" stroke="none" vectornator:layerName="path"/>
<path d="M485.579 369.111L485.579 358.395L494.005 358.395L494.005 360.123L487.826 360.123L487.826 362.846L493.53 362.846L493.53 364.574L487.826 364.574L487.826 367.383L494.307 367.383L494.307 369.111L485.579 369.111" fill="#333333" fill-rule="nonzero" opacity="1" stroke="none" vectornator:layerName="path"/>
<path d="M502.215 361.247C502.172 359.389 498.153 359.259 498.023 361.117C498.801 363.969 504.548 361.549 504.678 366.043C504.807 370.148 497.548 370.062 495.863 367.599C495.604 367.253 495.431 366.778 495.344 366.302L497.505 365.957C497.634 367.944 502.344 368.376 502.517 366.173C501.783 363.191 496.036 365.741 495.863 361.247C495.69 357.488 502.474 357.444 503.986 359.734C504.202 360.08 504.332 360.512 504.418 360.944" fill="#333333" fill-rule="nonzero" opacity="1" stroke="none" vectornator:layerName="path"/>
</g>
<g opacity="1" vectornator:layerName="e">
<path d="M512.499 365.092C512.499 368.29 513.449 370.407 514.789 372.352L512.628 372.352C511.332 370.407 510.381 368.333 510.381 365.092C510.381 361.852 511.332 359.778 512.628 357.833L514.789 357.833C513.406 359.734 512.499 361.895 512.499 365.092" fill="#333333" fill-rule="nonzero" opacity="1" stroke="none" vectornator:layerName="path"/>
<path d="M521.875 366.951L521.875 369.111L519.844 369.111L519.844 366.951L514.962 366.951L514.962 365.309L519.499 358.395L521.875 358.395L521.875 365.352L523.301 365.352L523.301 366.951L521.875 366.951ZM519.844 365.352L519.931 360.339L516.733 365.352L519.844 365.352" fill="#333333" fill-rule="nonzero" opacity="1" stroke="none" vectornator:layerName="path"/>
<path d="M527.752 358.265C530.69 358.265 531.381 360.599 531.381 363.753C531.381 366.951 530.56 369.284 527.665 369.284C524.77 369.284 524.036 366.864 523.992 363.753C523.949 360.512 524.727 358.265 527.752 358.265ZM527.709 367.599C529.307 367.383 529.264 365.611 529.264 363.753C529.264 361.895 529.437 359.907 527.709 359.907C526.023 359.907 526.153 361.852 526.153 363.753C526.153 365.611 526.023 367.426 527.709 367.599" fill="#333333" fill-rule="nonzero" opacity="1" stroke="none" vectornator:layerName="path"/>
<path d="M537.56 363.623C539.03 363.796 539.98 364.531 540.11 366.13C540.412 370.062 533.715 370.191 532.678 367.339C532.505 366.951 532.418 366.605 532.375 366.216L534.579 366C534.622 367.037 535.27 367.512 536.307 367.555C537.301 367.555 537.992 367.037 537.949 366C537.906 364.66 536.61 364.444 535.141 364.531L535.141 362.802C536.523 362.889 537.69 362.673 537.69 361.376C537.69 360.512 537.128 359.951 536.221 359.951C535.313 359.951 534.795 360.512 534.709 361.333L532.548 361.204C532.807 359.302 534.147 358.265 536.264 358.265C538.425 358.265 539.851 359.13 539.851 361.117C539.851 362.63 538.9 363.364 537.56 363.623" fill="#333333" fill-rule="nonzero" opacity="1" stroke="none" vectornator:layerName="path"/>
</g>
<g opacity="1" vectornator:layerName="f">
<path d="M550.826 362.63C549.141 362.111 548.233 363.191 548.233 365.092L548.233 369.111L546.073 369.111L546.03 360.901L548.06 360.901C548.147 361.463 548.017 362.154 548.19 362.63C548.449 361.42 549.357 360.339 550.826 360.858L550.826 362.63" fill="#333333" fill-rule="nonzero" opacity="1" stroke="none" vectornator:layerName="path"/>
<path d="M559.036 367.037C558.474 368.333 557.437 369.327 555.492 369.284C552.9 369.197 551.647 367.685 551.647 364.963C551.647 362.241 552.943 360.728 555.536 360.728C558.215 360.728 559.122 362.673 559.165 365.395L553.894 365.395C553.894 366.734 554.239 367.772 555.579 367.815C556.357 367.815 556.875 367.512 557.048 366.864L559.036 367.037ZM557.091 364.055C557.307 362.068 554.628 361.333 554.067 363.148C553.98 363.407 553.894 363.71 553.894 364.055L557.091 364.055" fill="#333333" fill-rule="nonzero" opacity="1" stroke="none" vectornator:layerName="path"/>
<path d="M565.604 363.148C565.647 361.895 562.579 361.679 562.536 362.975C563.184 364.963 567.634 363.278 567.678 366.691C567.721 370.278 560.591 369.975 560.246 367.08L562.104 366.778C562.276 367.599 562.968 367.858 564.005 367.858C565.431 368.204 566.468 366.562 565.042 366.086C563.184 365.481 560.634 365.611 560.548 363.234C560.462 359.778 567.202 360.037 567.505 362.932" fill="#333333" fill-rule="nonzero" opacity="1" stroke="none" vectornator:layerName="path"/>
<path d="M574.159 360.728C576.449 360.728 577.184 362.63 577.184 364.963C577.184 367.383 576.363 369.197 574.03 369.284C572.69 369.327 572.085 368.549 571.48 367.815C571.61 369.241 571.567 370.796 571.567 372.352L569.406 372.352L569.363 360.901L571.437 360.901C571.523 361.333 571.437 361.895 571.567 362.241C572.042 361.204 572.82 360.728 574.159 360.728ZM573.252 367.815C574.678 367.815 574.937 366.475 574.98 364.963C574.98 363.321 574.591 362.197 573.252 362.197C570.832 362.197 570.875 367.815 573.252 367.815" fill="#333333" fill-rule="nonzero" opacity="1" stroke="none" vectornator:layerName="path"/>
<path d="M582.542 360.728C585.307 360.728 586.69 362.284 586.69 365.006C586.69 367.772 585.178 369.284 582.499 369.284C579.863 369.284 578.394 367.728 578.394 365.006C578.394 362.327 579.863 360.728 582.542 360.728ZM582.499 367.815C584.011 367.815 584.443 366.605 584.443 365.006C584.443 363.278 584.011 362.197 582.585 362.197C581.116 362.197 580.641 363.321 580.641 365.006C580.641 366.562 581.073 367.815 582.499 367.815" fill="#333333" fill-rule="nonzero" opacity="1" stroke="none" vectornator:layerName="path"/>
<path d="M593.085 360.728C596.844 360.685 595.591 365.611 595.807 369.111L593.647 369.111C593.344 366.648 594.641 362.327 592.178 362.327C589.628 362.327 590.709 366.518 590.492 369.111L588.332 369.111L588.289 360.901L590.32 360.901C590.406 361.42 590.276 362.111 590.449 362.543C590.968 361.42 591.659 360.772 593.085 360.728" fill="#333333" fill-rule="nonzero" opacity="1" stroke="none" vectornator:layerName="path"/>
<path d="M602.634 363.148C602.678 361.895 599.61 361.679 599.567 362.975C600.215 364.963 604.665 363.278 604.709 366.691C604.752 370.278 597.622 369.975 597.276 367.08L599.134 366.778C599.307 367.599 599.999 367.858 601.036 367.858C602.462 368.204 603.499 366.562 602.073 366.086C600.215 365.481 597.665 365.611 597.579 363.234C597.492 359.778 604.233 360.037 604.536 362.932" fill="#333333" fill-rule="nonzero" opacity="1" stroke="none" vectornator:layerName="path"/>
<path d="M613.351 367.037C612.789 368.333 611.752 369.327 609.807 369.284C607.215 369.197 605.962 367.685 605.962 364.963C605.962 362.241 607.258 360.728 609.851 360.728C612.53 360.728 613.437 362.673 613.48 365.395L608.209 365.395C608.209 366.734 608.554 367.772 609.894 367.815C610.672 367.815 611.19 367.512 611.363 366.864L613.351 367.037ZM611.406 364.055C611.622 362.068 608.943 361.333 608.381 363.148C608.295 363.407 608.209 363.71 608.209 364.055L611.406 364.055" fill="#333333" fill-rule="nonzero" opacity="1" stroke="none" vectornator:layerName="path"/>
<path d="M618.406 365.092C618.406 368.29 617.455 370.407 616.159 372.352L613.999 372.352C615.295 370.364 616.332 368.333 616.289 365.092C616.289 361.895 615.338 359.778 613.999 357.833L616.159 357.833C617.455 359.778 618.406 361.895 618.406 365.092" fill="#333333" fill-rule="nonzero" opacity="1" stroke="none" vectornator:layerName="path"/>
</g>
<path d="M380.656 120.18L380.656 143.12" fill="none" opacity="1" stroke="#333333" stroke-linecap="butt" stroke-linejoin="miter" stroke-width="1" vectornator:layerName="path"/>
<path d="M381.156 120.2L380.156 120.2L380.156 119.68L381.156 119.68" fill="#333333" fill-rule="nonzero" opacity="1" stroke="none" vectornator:layerName="path"/>
<path d="M380.656 157.88L376.016 143.62L385.296 143.62L380.656 157.88Z" fill="#333333" fill-rule="nonzero" opacity="1" stroke="#333333" stroke-linecap="butt" stroke-linejoin="miter" stroke-width="1" vectornator:layerName="path"/>
<path d="M19.9961 424.9C19.9961 420.48 23.5961 416.9 27.9961 416.9L151.996 416.9C156.416 416.9 159.996 420.48 159.996 424.9L159.996 508.58C159.996 513 156.416 516.58 151.996 516.58L27.9961 516.58C23.5961 516.58 19.9961 513 19.9961 508.58L19.9961 424.9Z" fill="#009e4f" fill-rule="nonzero" opacity="1" stroke="#000000" stroke-linecap="butt" stroke-linejoin="miter" stroke-opacity="0" stroke-width="2" vectornator:layerName="path"/>
<g opacity="1" vectornator:layerName="g">
<path d="M49.2346 457.624C53.5309 457.674 58.6667 456.883 58.6667 461.328C58.6667 465.18 54.8642 465.279 50.8642 465.081L50.8642 469.871L49.2346 469.871L49.2346 457.624ZM50.8642 463.797C53.679 463.797 56.9877 464.34 56.9877 461.328C56.9877 458.414 53.6296 459.007 50.8642 458.958L50.8642 463.797" fill="#ffffff" fill-rule="nonzero" opacity="1" stroke="none" vectornator:layerName="path"/>
<path d="M60.7901 469.871L60.7901 456.982L62.3704 456.982L62.3704 469.871L60.7901 469.871" fill="#ffffff" fill-rule="nonzero" opacity="1" stroke="none" vectornator:layerName="path"/>
<path d="M70.4691 468.093C69.7284 469.13 68.9383 470.118 67.1111 470.069C65.3333 470.019 64.2469 469.032 64.2469 467.254C64.1975 464.093 67.358 464.143 70.4198 464.143C70.5679 462.414 69.9753 461.476 68.3951 461.476C67.2099 461.525 66.3704 461.822 66.321 463.007L64.6914 462.859C64.9383 461.032 66.321 460.291 68.4444 460.291C70.6667 460.291 72 461.279 72 463.451L72 467.501C71.9506 468.488 72.3457 469.081 73.3827 468.834L73.3827 469.822C71.8519 470.266 70.3704 469.723 70.4691 468.093ZM65.8765 467.254C65.8765 468.242 66.4691 468.883 67.4568 468.883C69.4815 468.735 70.5679 467.451 70.4198 465.229C68.2963 465.328 65.8765 464.982 65.8765 467.254" fill="#ffffff" fill-rule="nonzero" opacity="1" stroke="none" vectornator:layerName="path"/>
<path d="M82.2222 460.488L77.9753 471.402C77.2839 472.785 76.1481 473.921 73.9753 473.476L73.9753 472.291C75.9012 472.587 76.5926 471.303 77.1358 469.822L73.4321 460.488L75.1111 460.488L77.9259 468.192L80.5926 460.488L82.2222 460.488" fill="#ffffff" fill-rule="nonzero" opacity="1" stroke="none" vectornator:layerName="path"/>
</g>
<g opacity="1" vectornator:layerName="h">
<path d="M93.9753 469.871L92.2963 469.871L87.3086 457.624L89.037 457.624L93.1358 468.39L97.2346 457.624L99.0123 457.624" fill="#ffffff" fill-rule="nonzero" opacity="1" stroke="none" vectornator:layerName="path"/>
<path d="M99.9012 458.464L99.9012 456.982L101.481 456.982L101.481 458.464L99.9012 458.464ZM99.9012 469.871L99.9012 460.488L101.481 460.488L101.481 469.871L99.9012 469.871" fill="#ffffff" fill-rule="nonzero" opacity="1" stroke="none" vectornator:layerName="path"/>
<path d="M106.815 460.291C108.346 460.291 109.185 460.933 109.778 461.921L109.728 456.982L111.309 456.982L111.358 469.871L109.877 469.871C109.778 469.377 109.877 468.735 109.728 468.34C109.235 469.476 108.346 470.069 106.815 470.069C104.198 470.069 103.407 468.143 103.358 465.229C103.358 461.97 104.494 460.291 106.815 460.291ZM107.259 461.476C105.284 461.476 104.988 463.155 104.988 465.18C104.988 467.155 105.284 468.834 107.21 468.834C109.284 468.834 109.728 467.254 109.728 465.081C109.728 463.007 109.284 461.427 107.259 461.476" fill="#ffffff" fill-rule="nonzero" opacity="1" stroke="none" vectornator:layerName="path"/>
<path d="M117.432 460.291C120.543 460.291 121.679 462.365 121.58 465.525L114.914 465.525C114.914 467.501 115.605 468.834 117.531 468.883C118.815 468.933 119.654 468.291 119.951 467.451L121.333 467.846C120.79 469.229 119.506 470.069 117.531 470.069C114.667 470.069 113.185 468.242 113.235 465.13C113.284 462.118 114.519 460.291 117.432 460.291ZM120 464.291C120.296 461.328 116.247 460.488 115.21 462.908C115.062 463.254 114.914 463.748 114.914 464.291L120 464.291" fill="#ffffff" fill-rule="nonzero" opacity="1" stroke="none" vectornator:layerName="path"/>
<path d="M127.309 460.291C130.37 460.242 131.506 462.118 131.506 465.18C131.556 468.291 130.173 470.069 127.259 470.069C124.346 470.069 123.16 468.143 123.111 465.18C123.111 461.921 124.494 460.291 127.309 460.291ZM127.259 468.883C129.432 468.933 129.877 467.353 129.877 465.18C129.877 463.056 129.481 461.476 127.358 461.476C125.235 461.476 124.741 463.056 124.741 465.18C124.741 467.303 125.235 468.834 127.259 468.883" fill="#ffffff" fill-rule="nonzero" opacity="1" stroke="none" vectornator:layerName="path"/>
</g>
<path d="M380.656 255.23L380.656 280.55" fill="none" opacity="1" stroke="#333333" stroke-linecap="butt" stroke-linejoin="miter" stroke-width="1" vectornator:layerName="path"/>
<path d="M381.156 255.24L380.156 255.24L380.156 254.74L381.156 254.74" fill="#333333" fill-rule="nonzero" opacity="1" stroke="none" vectornator:layerName="path"/>
<path d="M380.656 295.32L376.016 281.05L385.296 281.05L380.656 295.32Z" fill="#333333" fill-rule="nonzero" opacity="1" stroke="#333333" stroke-linecap="butt" stroke-linejoin="miter" stroke-width="1" vectornator:layerName="path"/>
<path d="M374.226 299.02C377.596 296.16 383.056 296.16 386.426 299.02L459.386 360.82C462.756 363.68 462.756 368.32 459.386 371.17L386.436 432.97C383.056 435.84 377.596 435.84 374.236 432.97L301.266 371.17C297.906 368.32 297.906 363.67 301.266 360.83L374.226 299.02Z" fill="#08088c" fill-rule="nonzero" opacity="1" stroke="#000000" stroke-linecap="butt" stroke-linejoin="miter" stroke-opacity="0" stroke-width="2" vectornator:layerName="path"/>
<g opacity="1" vectornator:layerName="i">
<path d="M346.762 337.977C346.268 336.594 345.033 335.755 343.157 335.755C340.243 335.755 338.86 337.73 338.86 340.644C338.86 343.607 340.292 345.631 343.255 345.631C345.379 345.631 346.317 344.446 347.107 343.064L348.441 343.755C347.552 345.631 345.922 347.014 343.157 347.014C339.206 347.014 337.379 344.545 337.181 340.644C336.885 335.508 342.07 333.088 346.416 335.162C347.354 335.607 347.947 336.446 348.342 337.434" fill="#ffffff" fill-rule="nonzero" opacity="1" stroke="none" vectornator:layerName="path"/>
<path d="M354.021 337.236C357.083 337.187 358.218 339.064 358.218 342.125C358.268 345.236 356.885 347.014 353.971 347.014C351.058 347.014 349.873 345.088 349.823 342.125C349.823 338.866 351.206 337.236 354.021 337.236ZM353.971 345.829C356.144 345.878 356.589 344.298 356.589 342.125C356.589 340.002 356.194 338.422 354.07 338.422C351.947 338.422 351.453 340.002 351.453 342.125C351.453 344.249 351.947 345.78 353.971 345.829" fill="#ffffff" fill-rule="nonzero" opacity="1" stroke="none" vectornator:layerName="path"/>
<path d="M364.737 337.236C369.132 337.039 367.354 342.965 367.7 346.817L366.12 346.817L366.12 340.841C366.12 339.311 365.725 338.422 364.194 338.471C360.638 338.57 362.021 343.508 361.774 346.817L360.194 346.817L360.144 337.434L361.626 337.434C361.675 337.928 361.576 338.619 361.725 339.014C362.268 337.928 363.157 337.286 364.737 337.236" fill="#ffffff" fill-rule="nonzero" opacity="1" stroke="none" vectornator:layerName="path"/>
<path d="M373.576 338.471C371.601 338.471 371.206 340.101 371.206 342.076C371.206 344.051 371.65 345.78 373.576 345.78C374.762 345.78 375.601 345.088 375.7 343.903L377.28 344.002C376.984 345.829 375.749 347.014 373.626 347.014C370.712 347.014 369.873 344.99 369.576 342.125C369.083 337.533 374.564 335.656 376.836 338.965C377.033 339.311 377.083 339.656 377.181 340.051L375.601 340.199C375.404 339.162 374.811 338.471 373.576 338.471" fill="#ffffff" fill-rule="nonzero" opacity="1" stroke="none" vectornator:layerName="path"/>
<path d="M381.873 347.014C377.478 347.212 379.206 341.286 378.86 337.434L380.441 337.434L380.441 343.36C380.441 344.891 380.786 345.829 382.367 345.78C385.922 345.681 384.589 340.792 384.836 337.434L386.367 337.434L386.416 346.817L384.934 346.817C384.885 346.323 384.984 345.582 384.836 345.187C384.292 346.273 383.453 346.965 381.873 347.014" fill="#ffffff" fill-rule="nonzero" opacity="1" stroke="none" vectornator:layerName="path"/>
<path d="M393.231 338.767C389.379 337.977 390.613 343.261 390.416 346.817L388.836 346.817L388.786 337.434L390.268 337.434C390.317 338.027 390.218 338.866 390.367 339.36C390.663 338.027 391.502 336.94 393.231 337.335L393.231 338.767" fill="#ffffff" fill-rule="nonzero" opacity="1" stroke="none" vectornator:layerName="path"/>
<path d="M399.107 338.767C395.255 337.977 396.49 343.261 396.292 346.817L394.712 346.817L394.663 337.434L396.144 337.434C396.194 338.027 396.095 338.866 396.243 339.36C396.539 338.027 397.379 336.94 399.107 337.335L399.107 338.767" fill="#ffffff" fill-rule="nonzero" opacity="1" stroke="none" vectornator:layerName="path"/>
<path d="M404.292 337.236C407.404 337.236 408.539 339.311 408.441 342.471L401.774 342.471C401.774 344.446 402.465 345.78 404.391 345.829C405.675 345.878 406.515 345.236 406.811 344.397L408.194 344.792C407.65 346.175 406.367 347.014 404.391 347.014C401.527 347.014 400.046 345.187 400.095 342.076C400.144 339.064 401.379 337.236 404.292 337.236ZM406.86 341.236C407.157 338.273 403.107 337.434 402.07 339.854C401.922 340.199 401.774 340.693 401.774 341.236L406.86 341.236" fill="#ffffff" fill-rule="nonzero" opacity="1" stroke="none" vectornator:layerName="path"/>
<path d="M415.009 337.236C419.404 337.039 417.626 342.965 417.971 346.817L416.391 346.817L416.391 340.841C416.391 339.311 415.996 338.422 414.465 338.471C410.91 338.57 412.292 343.508 412.046 346.817L410.465 346.817L410.416 337.434L411.897 337.434C411.947 337.928 411.848 338.619 411.996 339.014C412.539 337.928 413.428 337.286 415.009 337.236" fill="#ffffff" fill-rule="nonzero" opacity="1" stroke="none" vectornator:layerName="path"/>
<path d="M422.021 344.496C421.922 345.681 422.91 345.928 423.897 345.582L423.897 346.767C422.268 347.261 420.441 347.014 420.441 344.841L420.441 338.57L419.354 338.57L419.354 337.434L420.539 337.434L420.984 335.311L422.021 335.311L422.021 337.434L423.749 337.434L423.749 338.57L422.021 338.57L422.021 344.496" fill="#ffffff" fill-rule="nonzero" opacity="1" stroke="none" vectornator:layerName="path"/>
</g>
<g opacity="1" vectornator:layerName="j">
<path d="M336.564 358.817C336.317 356.446 330.49 356.15 330.441 358.915C331.132 362.619 338.243 359.607 338.49 364.792C338.638 368.644 332.515 369.088 329.848 367.508C329.009 367.014 328.465 366.224 328.218 365.236L329.848 364.891C330.095 367.656 336.811 368.002 336.811 364.841C336.811 360.99 329.157 364.15 328.811 359.014C328.564 354.965 335.971 354.866 337.65 357.335C337.897 357.681 338.046 358.125 338.194 358.57" fill="#ffffff" fill-rule="nonzero" opacity="1" stroke="none" vectornator:layerName="path"/>
<path d="M344.218 358.57C347.329 358.57 348.465 360.644 348.367 363.804L341.7 363.804C341.7 365.78 342.391 367.113 344.317 367.162C345.601 367.212 346.441 366.57 346.737 365.73L348.12 366.125C347.576 367.508 346.292 368.348 344.317 368.348C341.453 368.348 339.971 366.52 340.021 363.409C340.07 360.397 341.305 358.57 344.218 358.57ZM346.786 362.57C347.083 359.607 343.033 358.767 341.996 361.187C341.848 361.533 341.7 362.027 341.7 362.57L346.786 362.57" fill="#ffffff" fill-rule="nonzero" opacity="1" stroke="none" vectornator:layerName="path"/>
<path d="M355.823 361.088C355.675 359.409 351.576 359.212 351.527 361.088C352.268 363.706 357.206 361.681 357.404 365.533C357.601 369.385 349.996 369.187 349.65 365.928L351.033 365.681C351.231 367.459 355.823 367.903 355.873 365.681C355.379 362.915 350.292 364.94 350.046 361.236C349.848 358.422 354.095 358.125 356.07 359.162C356.663 359.508 357.107 360.101 357.255 360.891" fill="#ffffff" fill-rule="nonzero" opacity="1" stroke="none" vectornator:layerName="path"/>
<path d="M364.712 361.088C364.564 359.409 360.465 359.212 360.416 361.088C361.157 363.706 366.095 361.681 366.292 365.533C366.49 369.385 358.885 369.187 358.539 365.928L359.922 365.681C360.12 367.459 364.712 367.903 364.762 365.681C364.268 362.915 359.181 364.94 358.934 361.236C358.737 358.422 362.984 358.125 364.959 359.162C365.552 359.508 365.996 360.101 366.144 360.891" fill="#ffffff" fill-rule="nonzero" opacity="1" stroke="none" vectornator:layerName="path"/>
<path d="M368.12 356.743L368.12 355.261L369.7 355.261L369.7 356.743L368.12 356.743ZM368.12 368.15L368.12 358.767L369.7 358.767L369.7 368.15L368.12 368.15" fill="#ffffff" fill-rule="nonzero" opacity="1" stroke="none" vectornator:layerName="path"/>
<path d="M375.774 358.57C378.836 358.52 379.971 360.397 379.971 363.459C380.021 366.57 378.638 368.348 375.725 368.348C372.811 368.348 371.626 366.422 371.576 363.459C371.576 360.199 372.959 358.57 375.774 358.57ZM375.725 367.162C377.897 367.212 378.342 365.631 378.342 363.459C378.342 361.335 377.947 359.755 375.823 359.755C373.7 359.755 373.206 361.335 373.206 363.459C373.206 365.582 373.7 367.113 375.725 367.162" fill="#ffffff" fill-rule="nonzero" opacity="1" stroke="none" vectornator:layerName="path"/>
<path d="M386.49 358.57C390.885 358.372 389.107 364.298 389.453 368.15L387.873 368.15L387.873 362.175C387.873 360.644 387.478 359.755 385.947 359.804C382.391 359.903 383.774 364.841 383.527 368.15L381.947 368.15L381.897 358.767L383.379 358.767C383.428 359.261 383.329 359.952 383.478 360.348C384.021 359.261 384.91 358.619 386.49 358.57" fill="#ffffff" fill-rule="nonzero" opacity="1" stroke="none" vectornator:layerName="path"/>
</g>
<g opacity="1" vectornator:layerName="k">
<path d="M397.009 368.15L397.009 355.903L398.638 355.903L398.638 366.817L404.811 366.817L404.811 368.15L397.009 368.15" fill="#ffffff" fill-rule="nonzero" opacity="1" stroke="none" vectornator:layerName="path"/>
<path d="M406.589 356.743L406.589 355.261L408.169 355.261L408.169 356.743L406.589 356.743ZM406.589 368.15L406.589 358.767L408.169 358.767L408.169 368.15L406.589 368.15" fill="#ffffff" fill-rule="nonzero" opacity="1" stroke="none" vectornator:layerName="path"/>
<path d="M419.675 359.804C416.367 359.952 417.799 364.99 417.502 368.15L415.971 368.15L415.971 362.175C415.971 360.743 415.725 359.706 414.243 359.804C410.984 360.002 412.367 364.94 412.07 368.15L410.539 368.15L410.49 358.767L411.971 358.767C412.021 359.261 411.922 359.952 412.07 360.348C412.564 358.175 416.959 357.878 417.354 360.348C417.897 359.311 418.688 358.619 420.218 358.57C424.416 358.471 422.539 364.446 422.934 368.15L421.404 368.15L421.404 362.175C421.404 360.743 421.157 359.755 419.675 359.804" fill="#ffffff" fill-rule="nonzero" opacity="1" stroke="none" vectornator:layerName="path"/>
<path d="M425.255 356.743L425.255 355.261L426.836 355.261L426.836 356.743L425.255 356.743ZM425.255 368.15L425.255 358.767L426.836 358.767L426.836 368.15L425.255 368.15" fill="#ffffff" fill-rule="nonzero" opacity="1" stroke="none" vectornator:layerName="path"/>
<path d="M430.885 365.829C430.786 367.014 431.774 367.261 432.762 366.915L432.762 368.101C431.132 368.594 429.305 368.348 429.305 366.175L429.305 359.903L428.218 359.903L428.218 358.767L429.404 358.767L429.848 356.644L430.885 356.644L430.885 358.767L432.613 358.767L432.613 359.903L430.885 359.903L430.885 365.829" fill="#ffffff" fill-rule="nonzero" opacity="1" stroke="none" vectornator:layerName="path"/>
</g>
<g opacity="1" vectornator:layerName="l">
<path d="M351.206 380.743C351.157 382.767 350.07 383.903 348.243 384.199L351.7 389.483L349.823 389.483L346.613 384.397L342.811 384.397L342.811 389.483L341.181 389.483L341.181 377.236C345.527 377.385 351.305 376.199 351.206 380.743ZM342.811 383.113C345.774 383.014 349.576 383.755 349.576 380.792C349.576 377.78 345.626 378.718 342.811 378.57L342.811 383.113" fill="#ffffff" fill-rule="nonzero" opacity="1" stroke="none" vectornator:layerName="path"/>
<path d="M357.428 379.903C360.539 379.903 361.675 381.977 361.576 385.138L354.91 385.138C354.91 387.113 355.601 388.446 357.527 388.496C358.811 388.545 359.65 387.903 359.947 387.064L361.329 387.459C360.786 388.841 359.502 389.681 357.527 389.681C354.663 389.681 353.181 387.854 353.231 384.743C353.28 381.73 354.515 379.903 357.428 379.903ZM359.996 383.903C360.292 380.94 356.243 380.101 355.206 382.52C355.058 382.866 354.91 383.36 354.91 383.903L359.996 383.903" fill="#ffffff" fill-rule="nonzero" opacity="1" stroke="none" vectornator:layerName="path"/>
<path d="M369.329 387.706C368.589 388.743 367.799 389.73 365.971 389.681C364.194 389.631 363.107 388.644 363.107 386.866C363.058 383.706 366.218 383.755 369.28 383.755C369.428 382.027 368.836 381.088 367.255 381.088C366.07 381.138 365.231 381.434 365.181 382.619L363.552 382.471C363.799 380.644 365.181 379.903 367.305 379.903C369.527 379.903 370.86 380.891 370.86 383.064L370.86 387.113C370.811 388.101 371.206 388.693 372.243 388.446L372.243 389.434C370.712 389.878 369.231 389.335 369.329 387.706ZM364.737 386.866C364.737 387.854 365.329 388.496 366.317 388.496C368.342 388.348 369.428 387.064 369.28 384.841C367.157 384.94 364.737 384.594 364.737 386.866" fill="#ffffff" fill-rule="nonzero" opacity="1" stroke="none" vectornator:layerName="path"/>
<path d="M376.984 381.138C375.009 381.138 374.613 382.767 374.613 384.743C374.613 386.718 375.058 388.446 376.984 388.446C378.169 388.446 379.009 387.755 379.107 386.57L380.688 386.669C380.391 388.496 379.157 389.681 377.033 389.681C374.12 389.681 373.28 387.656 372.984 384.792C372.49 380.199 377.971 378.323 380.243 381.631C380.441 381.977 380.49 382.323 380.589 382.718L379.009 382.866C378.811 381.829 378.218 381.138 376.984 381.138" fill="#ffffff" fill-rule="nonzero" opacity="1" stroke="none" vectornator:layerName="path"/>
<path d="M386.367 381.138C382.811 381.138 384.194 386.175 383.947 389.483L382.367 389.483L382.367 376.594L383.947 376.594L383.897 381.681C384.49 380.644 385.28 379.903 386.91 379.903C391.305 379.903 389.527 385.631 389.873 389.483L388.292 389.483L388.292 383.508C388.391 381.928 387.897 381.088 386.367 381.138" fill="#ffffff" fill-rule="nonzero" opacity="1" stroke="none" vectornator:layerName="path"/>
<path d="M395.947 379.903C399.058 379.903 400.194 381.977 400.095 385.138L393.428 385.138C393.428 387.113 394.12 388.446 396.046 388.496C397.329 388.545 398.169 387.903 398.465 387.064L399.848 387.459C399.305 388.841 398.021 389.681 396.046 389.681C393.181 389.681 391.7 387.854 391.749 384.743C391.799 381.73 393.033 379.903 395.947 379.903ZM398.515 383.903C398.811 380.94 394.762 380.101 393.725 382.52C393.576 382.866 393.428 383.36 393.428 383.903L398.515 383.903" fill="#ffffff" fill-rule="nonzero" opacity="1" stroke="none" vectornator:layerName="path"/>
<path d="M405.083 379.903C406.613 379.903 407.453 380.545 408.046 381.533L407.996 376.594L409.576 376.594L409.626 389.483L408.144 389.483C408.046 388.99 408.144 388.348 407.996 387.952C407.502 389.088 406.613 389.681 405.083 389.681C402.465 389.681 401.675 387.755 401.626 384.841C401.626 381.582 402.762 379.903 405.083 379.903ZM405.527 381.088C403.552 381.088 403.255 382.767 403.255 384.792C403.255 386.767 403.552 388.446 405.478 388.446C407.552 388.446 407.996 386.866 407.996 384.693C407.996 382.619 407.552 381.039 405.527 381.088" fill="#ffffff" fill-rule="nonzero" opacity="1" stroke="none" vectornator:layerName="path"/>
<path d="M415.848 377.088C419.996 377.088 421.329 381.878 418.07 383.656C417.132 384.15 416.243 384.841 416.144 386.224L414.613 386.224C414.613 383.113 418.416 383.508 418.416 380.594C418.416 379.113 417.379 378.52 415.848 378.471C414.268 378.471 413.231 379.31 413.083 380.743L411.502 380.644C411.848 378.422 413.181 377.088 415.848 377.088ZM414.564 389.483L414.564 387.755L416.243 387.755L416.243 389.483L414.564 389.483" fill="#ffffff" fill-rule="nonzero" opacity="1" stroke="none" vectornator:layerName="path"/>
</g>
<path d="M150.356 366.5L102.036 366.5L99.0161 366.9L96.2561 368.04L93.8761 369.87L92.0361 372.27L90.8961 375.02L90.4961 378.02L90.4961 400.52L89.4961 400.52L89.4961 377.97L89.9161 374.77L91.1661 371.77L93.1661 369.17L95.7661 367.17L98.7661 365.92L101.966 365.5L150.366 365.5M298.296 366.5L287.496 366.5L287.496 365.5L298.296 365.5" fill="#333333" fill-rule="nonzero" opacity="1" stroke="none" vectornator:layerName="path"/>
<path d="M298.756 366.5L298.276 366.5L298.276 365.5L298.806 365.5M89.9961 415.28L85.3661 401.02L94.6561 401.02L89.9961 415.28Z" fill="#333333" fill-rule="nonzero" opacity="1" stroke="none" vectornator:layerName="path"/>
<path d="M89.9961 416.9L84.6761 400.52L95.3261 400.52M86.0561 401.52L89.9961 413.66L93.9461 401.52" fill="#333333" fill-rule="nonzero" opacity="1" stroke="none" vectornator:layerName="path"/>
<g opacity="1" vectornator:layerName="g">
<g opacity="1" vectornator:layerName="m">
<path d="M157.909 369.111L153.242 360.858C153.501 363.364 153.328 366.389 153.371 369.111L151.384 369.111L151.384 358.395L153.933 358.395L158.686 366.734C158.427 364.228 158.6 361.16 158.557 358.395L160.544 358.395L160.544 369.111L157.909 369.111" fill="#333333" fill-rule="nonzero" opacity="1" stroke="none" vectornator:layerName="path"/>
<path d="M167.588 358.265C171.044 358.265 172.989 360.21 172.989 363.71C172.989 367.21 171.001 369.284 167.544 369.284C164.044 369.284 162.186 367.21 162.186 363.71C162.186 360.21 164.088 358.265 167.588 358.265ZM167.544 367.512C169.791 367.512 170.699 366 170.699 363.71C170.699 361.549 169.791 359.994 167.588 359.994C165.341 359.994 164.433 361.506 164.433 363.71C164.433 365.913 165.384 367.512 167.544 367.512" fill="#333333" fill-rule="nonzero" opacity="1" stroke="none" vectornator:layerName="path"/>
</g>
<g opacity="1" vectornator:layerName="n">
<path d="M180.853 365.092C180.853 368.29 181.804 370.407 183.143 372.352L180.983 372.352C179.686 370.407 178.736 368.333 178.736 365.092C178.736 361.852 179.686 359.778 180.983 357.833L183.143 357.833C181.76 359.734 180.853 361.895 180.853 365.092" fill="#333333" fill-rule="nonzero" opacity="1" stroke="none" vectornator:layerName="path"/>
<path d="M190.964 361.247C190.964 364.617 187.334 364.963 186.168 367.339L191.137 367.339L191.137 369.111L183.618 369.111C183.359 364.747 187.896 364.79 188.804 361.333C188.847 360.383 188.285 359.994 187.378 359.951C186.384 359.951 185.995 360.555 185.865 361.42L183.748 361.29C183.964 359.346 185.131 358.265 187.378 358.265C189.581 358.265 190.964 359.216 190.964 361.247" fill="#333333" fill-rule="nonzero" opacity="1" stroke="none" vectornator:layerName="path"/>
<path d="M196.106 358.265C199.044 358.265 199.736 360.599 199.736 363.753C199.736 366.951 198.915 369.284 196.02 369.284C193.125 369.284 192.39 366.864 192.347 363.753C192.304 360.512 193.081 358.265 196.106 358.265ZM196.063 367.599C197.662 367.383 197.618 365.611 197.618 363.753C197.618 361.895 197.791 359.907 196.063 359.907C194.378 359.907 194.507 361.852 194.507 363.753C194.507 365.611 194.378 367.426 196.063 367.599" fill="#333333" fill-rule="nonzero" opacity="1" stroke="none" vectornator:layerName="path"/>
<path d="M204.748 358.265C207.686 358.265 208.378 360.599 208.378 363.753C208.378 366.951 207.557 369.284 204.662 369.284C201.767 369.284 201.032 366.864 200.989 363.753C200.946 360.512 201.723 358.265 204.748 358.265ZM204.705 367.599C206.304 367.383 206.26 365.611 206.26 363.753C206.26 361.895 206.433 359.907 204.705 359.907C203.02 359.907 203.149 361.852 203.149 363.753C203.149 365.611 203.02 367.426 204.705 367.599" fill="#333333" fill-rule="nonzero" opacity="1" stroke="none" vectornator:layerName="path"/>
</g>
<g opacity="1" vectornator:layerName="f">
<path d="M219.18 362.63C217.495 362.111 216.588 363.191 216.588 365.092L216.588 369.111L214.427 369.111L214.384 360.901L216.415 360.901C216.501 361.463 216.371 362.154 216.544 362.63C216.804 361.42 217.711 360.339 219.18 360.858L219.18 362.63" fill="#333333" fill-rule="nonzero" opacity="1" stroke="none" vectornator:layerName="path"/>
<path d="M227.39 367.037C226.828 368.333 225.791 369.327 223.847 369.284C221.254 369.197 220.001 367.685 220.001 364.963C220.001 362.241 221.297 360.728 223.89 360.728C226.569 360.728 227.476 362.673 227.52 365.395L222.248 365.395C222.248 366.734 222.594 367.772 223.933 367.815C224.711 367.815 225.23 367.512 225.402 366.864L227.39 367.037ZM225.446 364.055C225.662 362.068 222.983 361.333 222.421 363.148C222.334 363.407 222.248 363.71 222.248 364.055L225.446 364.055" fill="#333333" fill-rule="nonzero" opacity="1" stroke="none" vectornator:layerName="path"/>
<path d="M233.958 363.148C234.001 361.895 230.933 361.679 230.89 362.975C231.538 364.963 235.989 363.278 236.032 366.691C236.075 370.278 228.946 369.975 228.6 367.08L230.458 366.778C230.631 367.599 231.322 367.858 232.359 367.858C233.785 368.204 234.822 366.562 233.396 366.086C231.538 365.481 228.989 365.611 228.902 363.234C228.816 359.778 235.557 360.037 235.859 362.932" fill="#333333" fill-rule="nonzero" opacity="1" stroke="none" vectornator:layerName="path"/>
<path d="M242.513 360.728C244.804 360.728 245.538 362.63 245.538 364.963C245.538 367.383 244.717 369.197 242.384 369.284C241.044 369.327 240.439 368.549 239.834 367.815C239.964 369.241 239.921 370.796 239.921 372.352L237.76 372.352L237.717 360.901L239.791 360.901C239.878 361.333 239.791 361.895 239.921 362.241C240.396 361.204 241.174 360.728 242.513 360.728ZM241.606 367.815C243.032 367.815 243.291 366.475 243.334 364.963C243.334 363.321 242.946 362.197 241.606 362.197C239.186 362.197 239.23 367.815 241.606 367.815" fill="#333333" fill-rule="nonzero" opacity="1" stroke="none" vectornator:layerName="path"/>
<path d="M250.896 360.728C253.662 360.728 255.044 362.284 255.044 365.006C255.044 367.772 253.532 369.284 250.853 369.284C248.217 369.284 246.748 367.728 246.748 365.006C246.748 362.327 248.217 360.728 250.896 360.728ZM250.853 367.815C252.365 367.815 252.797 366.605 252.797 365.006C252.797 363.278 252.365 362.197 250.939 362.197C249.47 362.197 248.995 363.321 248.995 365.006C248.995 366.562 249.427 367.815 250.853 367.815" fill="#333333" fill-rule="nonzero" opacity="1" stroke="none" vectornator:layerName="path"/>
<path d="M261.439 360.728C265.199 360.685 263.946 365.611 264.162 369.111L262.001 369.111C261.699 366.648 262.995 362.327 260.532 362.327C257.983 362.327 259.063 366.518 258.847 369.111L256.686 369.111L256.643 360.901L258.674 360.901C258.76 361.42 258.631 362.111 258.804 362.543C259.322 361.42 260.013 360.772 261.439 360.728" fill="#333333" fill-rule="nonzero" opacity="1" stroke="none" vectornator:layerName="path"/>
<path d="M270.989 363.148C271.032 361.895 267.964 361.679 267.921 362.975C268.569 364.963 273.02 363.278 273.063 366.691C273.106 370.278 265.976 369.975 265.631 367.08L267.489 366.778C267.662 367.599 268.353 367.858 269.39 367.858C270.816 368.204 271.853 366.562 270.427 366.086C268.569 365.481 266.02 365.611 265.933 363.234C265.847 359.778 272.588 360.037 272.89 362.932" fill="#333333" fill-rule="nonzero" opacity="1" stroke="none" vectornator:layerName="path"/>
<path d="M281.705 367.037C281.143 368.333 280.106 369.327 278.162 369.284C275.569 369.197 274.316 367.685 274.316 364.963C274.316 362.241 275.612 360.728 278.205 360.728C280.884 360.728 281.791 362.673 281.834 365.395L276.563 365.395C276.563 366.734 276.909 367.772 278.248 367.815C279.026 367.815 279.544 367.512 279.717 366.864L281.705 367.037ZM279.76 364.055C279.976 362.068 277.297 361.333 276.736 363.148C276.649 363.407 276.563 363.71 276.563 364.055L279.76 364.055" fill="#333333" fill-rule="nonzero" opacity="1" stroke="none" vectornator:layerName="path"/>
<path d="M286.76 365.092C286.76 368.29 285.81 370.407 284.513 372.352L282.353 372.352C283.649 370.364 284.686 368.333 284.643 365.092C284.643 361.895 283.692 359.778 282.353 357.833L284.513 357.833C285.81 359.778 286.76 361.895 286.76 365.092" fill="#333333" fill-rule="nonzero" opacity="1" stroke="none" vectornator:layerName="path"/>
</g>
</g>
<path d="M300.656 168C300.656 163.58 304.236 160 308.656 160L452.656 160C457.076 160 460.656 163.58 460.656 168L460.656 246.23C460.656 250.65 457.076 254.23 452.656 254.23L308.656 254.23C304.236 254.23 300.656 250.65 300.656 246.23L300.656 168Z" fill="#08088c" fill-rule="nonzero" opacity="1" stroke="#333333" stroke-linecap="butt" stroke-linejoin="miter" stroke-width="1" vectornator:layerName="path"/>
<g opacity="1" vectornator:layerName="g">
<g opacity="1" vectornator:layerName="o">
<path d="M324.088 187.288C328.384 187.337 333.52 186.547 333.52 190.992C333.52 194.843 329.718 194.942 325.718 194.745L325.718 199.535L324.088 199.535L324.088 187.288ZM325.718 193.461C328.533 193.461 331.841 194.004 331.841 190.992C331.841 188.078 328.483 188.671 325.718 188.621L325.718 193.461" fill="#ffffff" fill-rule="nonzero" opacity="1" stroke="none" vectornator:layerName="path"/>
<path d="M341.372 187.14C345.372 187.14 347.446 189.411 347.446 193.362C347.446 197.263 345.273 199.732 341.372 199.732C337.372 199.732 335.298 197.312 335.298 193.362C335.298 189.411 337.372 187.14 341.372 187.14ZM341.372 198.35C344.483 198.35 345.767 196.325 345.767 193.362C345.767 190.399 344.335 188.473 341.372 188.473C338.36 188.473 336.977 190.399 336.977 193.362C336.977 196.325 338.36 198.3 341.372 198.35" fill="#ffffff" fill-rule="nonzero" opacity="1" stroke="none" vectornator:layerName="path"/>
<path d="M357.421 190.201C357.175 187.831 351.347 187.535 351.298 190.3C351.989 194.004 359.101 190.992 359.347 196.177C359.496 200.029 353.372 200.473 350.705 198.893C349.866 198.399 349.323 197.609 349.076 196.621L350.705 196.275C350.952 199.041 357.668 199.387 357.668 196.226C357.668 192.374 350.014 195.535 349.668 190.399C349.421 186.35 356.829 186.251 358.508 188.72C358.755 189.066 358.903 189.51 359.051 189.954" fill="#ffffff" fill-rule="nonzero" opacity="1" stroke="none" vectornator:layerName="path"/>
<path d="M366.409 188.671L366.409 199.535L364.73 199.535L364.73 188.671L360.533 188.671L360.533 187.288L370.607 187.288L370.607 188.671L366.409 188.671" fill="#ffffff" fill-rule="nonzero" opacity="1" stroke="none" vectornator:layerName="path"/>
</g>
<g opacity="1" vectornator:layerName="p">
<path d="M384.681 190.201C384.434 187.831 378.607 187.535 378.557 190.3C379.249 194.004 386.36 190.992 386.607 196.177C386.755 200.029 380.631 200.473 377.965 198.893C377.125 198.399 376.582 197.609 376.335 196.621L377.965 196.275C378.212 199.041 384.928 199.387 384.928 196.226C384.928 192.374 377.273 195.535 376.928 190.399C376.681 186.35 384.088 186.251 385.767 188.72C386.014 189.066 386.162 189.51 386.31 189.954" fill="#ffffff" fill-rule="nonzero" opacity="1" stroke="none" vectornator:layerName="path"/>
<path d="M392.335 189.954C395.446 189.954 396.582 192.029 396.483 195.189L389.817 195.189C389.817 197.164 390.508 198.498 392.434 198.547C393.718 198.596 394.557 197.954 394.854 197.115L396.236 197.51C395.693 198.893 394.409 199.732 392.434 199.732C389.57 199.732 388.088 197.905 388.138 194.794C388.187 191.782 389.421 189.954 392.335 189.954ZM394.903 193.954C395.199 190.992 391.15 190.152 390.113 192.572C389.965 192.917 389.817 193.411 389.817 193.954L394.903 193.954" fill="#ffffff" fill-rule="nonzero" opacity="1" stroke="none" vectornator:layerName="path"/>
<path d="M403.94 192.473C403.792 190.794 399.693 190.596 399.644 192.473C400.384 195.09 405.323 193.066 405.52 196.917C405.718 200.769 398.113 200.572 397.767 197.312L399.15 197.066C399.347 198.843 403.94 199.288 403.989 197.066C403.496 194.3 398.409 196.325 398.162 192.621C397.965 189.806 402.212 189.51 404.187 190.547C404.78 190.893 405.224 191.485 405.372 192.275" fill="#ffffff" fill-rule="nonzero" opacity="1" stroke="none" vectornator:layerName="path"/>
<path d="M412.829 192.473C412.681 190.794 408.582 190.596 408.533 192.473C409.273 195.09 414.212 193.066 414.409 196.917C414.607 200.769 407.002 200.572 406.656 197.312L408.039 197.066C408.236 198.843 412.829 199.288 412.878 197.066C412.384 194.3 407.298 196.325 407.051 192.621C406.854 189.806 411.101 189.51 413.076 190.547C413.668 190.893 414.113 191.485 414.261 192.275" fill="#ffffff" fill-rule="nonzero" opacity="1" stroke="none" vectornator:layerName="path"/>
<path d="M416.236 188.127L416.236 186.646L417.817 186.646L417.817 188.127L416.236 188.127ZM416.236 199.535L416.236 190.152L417.817 190.152L417.817 199.535L416.236 199.535" fill="#ffffff" fill-rule="nonzero" opacity="1" stroke="none" vectornator:layerName="path"/>
<path d="M423.891 189.954C426.952 189.905 428.088 191.782 428.088 194.843C428.138 197.954 426.755 199.732 423.841 199.732C420.928 199.732 419.742 197.806 419.693 194.843C419.693 191.584 421.076 189.954 423.891 189.954ZM423.841 198.547C426.014 198.596 426.459 197.016 426.459 194.843C426.459 192.72 426.063 191.14 423.94 191.14C421.817 191.14 421.323 192.72 421.323 194.843C421.323 196.967 421.817 198.498 423.841 198.547" fill="#ffffff" fill-rule="nonzero" opacity="1" stroke="none" vectornator:layerName="path"/>
<path d="M434.607 189.954C439.002 189.757 437.224 195.683 437.57 199.535L435.989 199.535L435.989 193.559C435.989 192.029 435.594 191.14 434.063 191.189C430.508 191.288 431.891 196.226 431.644 199.535L430.063 199.535L430.014 190.152L431.496 190.152C431.545 190.646 431.446 191.337 431.594 191.732C432.138 190.646 433.026 190.004 434.607 189.954" fill="#ffffff" fill-rule="nonzero" opacity="1" stroke="none" vectornator:layerName="path"/>
</g>
<g opacity="1" vectornator:layerName="q">
<path d="M332.434 212.127C332.384 214.152 331.298 215.288 329.471 215.584L332.928 220.868L331.051 220.868L327.841 215.782L324.039 215.782L324.039 220.868L322.409 220.868L322.409 208.621C326.755 208.769 332.533 207.584 332.434 212.127ZM324.039 214.498C327.002 214.399 330.804 215.14 330.804 212.177C330.804 209.164 326.854 210.103 324.039 209.954L324.039 214.498" fill="#ffffff" fill-rule="nonzero" opacity="1" stroke="none" vectornator:layerName="path"/>
<path d="M338.656 211.288C341.767 211.288 342.903 213.362 342.804 216.522L336.138 216.522C336.138 218.498 336.829 219.831 338.755 219.88C340.039 219.93 340.878 219.288 341.175 218.448L342.557 218.843C342.014 220.226 340.73 221.066 338.755 221.066C335.891 221.066 334.409 219.238 334.459 216.127C334.508 213.115 335.742 211.288 338.656 211.288ZM341.224 215.288C341.52 212.325 337.471 211.485 336.434 213.905C336.286 214.251 336.138 214.745 336.138 215.288L341.224 215.288" fill="#ffffff" fill-rule="nonzero" opacity="1" stroke="none" vectornator:layerName="path"/>
<path d="M350.755 219.337C350.212 220.424 349.323 221.066 347.792 221.066C345.175 221.066 344.384 219.14 344.335 216.226C344.335 213.313 345.175 211.337 347.792 211.288C349.372 211.238 350.162 211.979 350.755 212.917C350.755 212.374 350.705 211.732 350.854 211.337L352.335 211.337L352.286 224.572L350.705 224.572L350.755 219.337ZM348.187 219.831C350.212 219.831 350.705 218.201 350.705 216.078C350.705 213.954 350.31 212.473 348.236 212.473C346.261 212.473 345.965 214.201 345.965 216.177C345.965 218.152 346.212 219.831 348.187 219.831" fill="#ffffff" fill-rule="nonzero" opacity="1" stroke="none" vectornator:layerName="path"/>
<path d="M357.619 221.066C353.224 221.263 354.952 215.337 354.607 211.485L356.187 211.485L356.187 217.411C356.187 218.942 356.533 219.88 358.113 219.831C361.668 219.732 360.335 214.843 360.582 211.485L362.113 211.485L362.162 220.868L360.681 220.868C360.631 220.374 360.73 219.633 360.582 219.238C360.039 220.325 359.199 221.016 357.619 221.066" fill="#ffffff" fill-rule="nonzero" opacity="1" stroke="none" vectornator:layerName="path"/>
<path d="M368.286 211.288C371.397 211.288 372.533 213.362 372.434 216.522L365.767 216.522C365.767 218.498 366.459 219.831 368.384 219.88C369.668 219.93 370.508 219.288 370.804 218.448L372.187 218.843C371.644 220.226 370.36 221.066 368.384 221.066C365.52 221.066 364.039 219.238 364.088 216.127C364.138 213.115 365.372 211.288 368.286 211.288ZM370.854 215.288C371.15 212.325 367.101 211.485 366.063 213.905C365.915 214.251 365.767 214.745 365.767 215.288L370.854 215.288" fill="#ffffff" fill-rule="nonzero" opacity="1" stroke="none" vectornator:layerName="path"/>
<path d="M379.891 213.806C379.742 212.127 375.644 211.93 375.594 213.806C376.335 216.424 381.273 214.399 381.471 218.251C381.668 222.103 374.063 221.905 373.718 218.646L375.101 218.399C375.298 220.177 379.891 220.621 379.94 218.399C379.446 215.633 374.36 217.658 374.113 213.954C373.915 211.14 378.162 210.843 380.138 211.88C380.73 212.226 381.175 212.819 381.323 213.609" fill="#ffffff" fill-rule="nonzero" opacity="1" stroke="none" vectornator:layerName="path"/>
<path d="M385.026 218.547C384.928 219.732 385.915 219.979 386.903 219.633L386.903 220.819C385.273 221.313 383.446 221.066 383.446 218.893L383.446 212.621L382.36 212.621L382.36 211.485L383.545 211.485L383.989 209.362L385.026 209.362L385.026 211.485L386.755 211.485L386.755 212.621L385.026 212.621L385.026 218.547" fill="#ffffff" fill-rule="nonzero" opacity="1" stroke="none" vectornator:layerName="path"/>
</g>
<g opacity="1" vectornator:layerName="r">
<path d="M394.903 218.547C394.804 219.732 395.792 219.979 396.78 219.633L396.78 220.819C395.15 221.313 393.323 221.066 393.323 218.893L393.323 212.621L392.236 212.621L392.236 211.485L393.422 211.485L393.866 209.362L394.903 209.362L394.903 211.485L396.631 211.485L396.631 212.621L394.903 212.621L394.903 218.547" fill="#ffffff" fill-rule="nonzero" opacity="1" stroke="none" vectornator:layerName="path"/>
<path d="M401.866 211.288C404.928 211.238 406.063 213.115 406.063 216.177C406.113 219.288 404.73 221.066 401.817 221.066C398.903 221.066 397.718 219.14 397.668 216.177C397.668 212.917 399.051 211.288 401.866 211.288ZM401.817 219.88C403.989 219.93 404.434 218.35 404.434 216.177C404.434 214.053 404.039 212.473 401.915 212.473C399.792 212.473 399.298 214.053 399.298 216.177C399.298 218.3 399.792 219.831 401.817 219.88" fill="#ffffff" fill-rule="nonzero" opacity="1" stroke="none" vectornator:layerName="path"/>
</g>
<g opacity="1" vectornator:layerName="s">
<path d="M421.866 220.868L420.483 217.313L414.903 217.313L413.52 220.868L411.792 220.868L416.78 208.621L418.656 208.621L423.545 220.868L421.866 220.868ZM419.989 215.979L417.668 209.905C417.076 212.127 416.138 213.954 415.397 215.979L419.989 215.979" fill="#ffffff" fill-rule="nonzero" opacity="1" stroke="none" vectornator:layerName="path"/>
<path d="M425.076 208.621C429.372 208.671 434.508 207.88 434.508 212.325C434.508 216.177 430.705 216.275 426.705 216.078L426.705 220.868L425.076 220.868L425.076 208.621ZM426.705 214.794C429.52 214.794 432.829 215.337 432.829 212.325C432.829 209.411 429.471 210.004 426.705 209.954L426.705 214.794" fill="#ffffff" fill-rule="nonzero" opacity="1" stroke="none" vectornator:layerName="path"/>
<path d="M437.076 220.868L437.076 208.621L438.755 208.621L438.755 220.868L437.076 220.868" fill="#ffffff" fill-rule="nonzero" opacity="1" stroke="none" vectornator:layerName="path"/>
</g>
</g>
<path d="M600.656 424.9C600.656 420.48 604.236 416.9 608.656 416.9L732.656 416.9C737.076 416.9 740.656 420.48 740.656 424.9L740.656 508.58C740.656 513 737.076 516.58 732.656 516.58L608.656 516.58C604.236 516.58 600.656 513 600.656 508.58L600.656 424.9Z" fill="#d33d00" fill-rule="nonzero" opacity="1" stroke="#000000" stroke-linecap="butt" stroke-linejoin="miter" stroke-opacity="0" stroke-width="2" vectornator:layerName="path"/>
<g opacity="1" vectornator:layerName="g">
<g opacity="1" vectornator:layerName="t">
<path d="M612.928 437.937C618.755 437.591 623.594 438.332 623.446 443.961C623.298 447.813 621.323 450.184 617.471 450.184L612.928 450.184L612.928 437.937ZM614.557 448.85C618.952 449.245 621.767 448.06 621.767 443.961C621.767 439.863 618.804 438.974 614.557 439.27L614.557 448.85" fill="#ffffff" fill-rule="nonzero" opacity="1" stroke="none" vectornator:layerName="path"/>
<path d="M629.175 440.603C632.286 440.603 633.421 442.677 633.323 445.838L626.656 445.838C626.656 447.813 627.347 449.147 629.273 449.196C630.557 449.245 631.397 448.603 631.693 447.764L633.076 448.159C632.533 449.542 631.249 450.381 629.273 450.381C626.409 450.381 624.928 448.554 624.977 445.443C625.026 442.431 626.261 440.603 629.175 440.603ZM631.742 444.603C632.039 441.64 627.989 440.801 626.952 443.221C626.804 443.566 626.656 444.06 626.656 444.603L631.742 444.603" fill="#ffffff" fill-rule="nonzero" opacity="1" stroke="none" vectornator:layerName="path"/>
<path d="M639.891 440.603C644.286 440.406 642.508 446.332 642.854 450.184L641.273 450.184L641.273 444.208C641.273 442.677 640.878 441.789 639.347 441.838C635.792 441.937 637.175 446.875 636.928 450.184L635.347 450.184L635.298 440.801L636.78 440.801C636.829 441.295 636.73 441.986 636.878 442.381C637.421 441.295 638.31 440.653 639.891 440.603" fill="#ffffff" fill-rule="nonzero" opacity="1" stroke="none" vectornator:layerName="path"/>
<path d="M652.829 440.801L648.582 451.715C647.891 453.097 646.755 454.233 644.582 453.789L644.582 452.603C646.508 452.9 647.199 451.616 647.742 450.134L644.039 440.801L645.718 440.801L648.533 448.505L651.199 440.801L652.829 440.801" fill="#ffffff" fill-rule="nonzero" opacity="1" stroke="none" vectornator:layerName="path"/>
</g>
<g opacity="1" vectornator:layerName="u">
<path d="M659.298 437.937C663.594 437.986 668.73 437.196 668.73 441.64C668.73 445.492 664.928 445.591 660.928 445.394L660.928 450.184L659.298 450.184L659.298 437.937ZM660.928 444.11C663.742 444.11 667.051 444.653 667.051 441.64C667.051 438.727 663.693 439.319 660.928 439.27L660.928 444.11" fill="#ffffff" fill-rule="nonzero" opacity="1" stroke="none" vectornator:layerName="path"/>
<path d="M670.854 450.184L670.854 437.295L672.434 437.295L672.434 450.184L670.854 450.184" fill="#ffffff" fill-rule="nonzero" opacity="1" stroke="none" vectornator:layerName="path"/>
<path d="M680.533 448.406C679.792 449.443 679.002 450.431 677.175 450.381C675.397 450.332 674.31 449.344 674.31 447.566C674.261 444.406 677.421 444.455 680.483 444.455C680.631 442.727 680.039 441.789 678.459 441.789C677.273 441.838 676.434 442.134 676.384 443.319L674.755 443.171C675.002 441.344 676.384 440.603 678.508 440.603C680.73 440.603 682.063 441.591 682.063 443.764L682.063 447.813C682.014 448.801 682.409 449.394 683.446 449.147L683.446 450.134C681.915 450.579 680.434 450.035 680.533 448.406ZM675.94 447.566C675.94 448.554 676.533 449.196 677.52 449.196C679.545 449.048 680.631 447.764 680.483 445.542C678.36 445.64 675.94 445.295 675.94 447.566" fill="#ffffff" fill-rule="nonzero" opacity="1" stroke="none" vectornator:layerName="path"/>
<path d="M692.286 440.801L688.039 451.715C687.347 453.097 686.212 454.233 684.039 453.789L684.039 452.603C685.965 452.9 686.656 451.616 687.199 450.134L683.496 440.801L685.175 440.801L687.989 448.505L690.656 440.801L692.286 440.801" fill="#ffffff" fill-rule="nonzero" opacity="1" stroke="none" vectornator:layerName="path"/>
<path d="M698.014 440.603C700.631 440.603 701.421 442.529 701.471 445.443C701.471 448.702 700.335 450.381 698.014 450.381C696.483 450.332 695.594 449.838 695.101 448.702L695.002 450.184L693.471 450.184L693.52 437.295L695.101 437.295L695.101 442.282C695.594 441.147 696.483 440.603 698.014 440.603ZM697.619 449.196C699.594 449.196 699.841 447.517 699.841 445.492C699.841 443.517 699.594 441.789 697.619 441.838C695.545 441.838 695.101 443.418 695.101 445.591C695.101 447.715 695.594 449.196 697.619 449.196" fill="#ffffff" fill-rule="nonzero" opacity="1" stroke="none" vectornator:layerName="path"/>
<path d="M709.175 448.406C708.434 449.443 707.644 450.431 705.817 450.381C704.039 450.332 702.952 449.344 702.952 447.566C702.903 444.406 706.063 444.455 709.125 444.455C709.273 442.727 708.681 441.789 707.101 441.789C705.915 441.838 705.076 442.134 705.026 443.319L703.397 443.171C703.644 441.344 705.026 440.603 707.15 440.603C709.372 440.603 710.705 441.591 710.705 443.764L710.705 447.813C710.656 448.801 711.051 449.394 712.088 449.147L712.088 450.134C710.557 450.579 709.076 450.035 709.175 448.406ZM704.582 447.566C704.582 448.554 705.175 449.196 706.162 449.196C708.187 449.048 709.273 447.764 709.125 445.542C707.002 445.64 704.582 445.295 704.582 447.566" fill="#ffffff" fill-rule="nonzero" opacity="1" stroke="none" vectornator:layerName="path"/>
<path d="M716.829 441.838C714.854 441.838 714.459 443.468 714.459 445.443C714.459 447.418 714.903 449.147 716.829 449.147C718.014 449.147 718.854 448.455 718.952 447.27L720.533 447.369C720.236 449.196 719.002 450.381 716.878 450.381C713.965 450.381 713.125 448.356 712.829 445.492C712.335 440.9 717.817 439.023 720.088 442.332C720.286 442.677 720.335 443.023 720.434 443.418L718.854 443.566C718.656 442.529 718.063 441.838 716.829 441.838" fill="#ffffff" fill-rule="nonzero" opacity="1" stroke="none" vectornator:layerName="path"/>
<path d="M728.039 450.184L724.878 445.887L723.742 446.826L723.742 450.184L722.162 450.184L722.162 437.295L723.742 437.295L723.742 445.344L727.841 440.801L729.668 440.801L725.866 444.85L729.915 450.184L728.039 450.184" fill="#ffffff" fill-rule="nonzero" opacity="1" stroke="none" vectornator:layerName="path"/>
</g>
<g opacity="1" vectornator:layerName="q">
<path d="M630.878 462.776C630.829 464.801 629.742 465.937 627.915 466.233L631.372 471.517L629.496 471.517L626.286 466.431L622.483 466.431L622.483 471.517L620.854 471.517L620.854 459.27C625.199 459.418 630.977 458.233 630.878 462.776ZM622.483 465.147C625.446 465.048 629.249 465.789 629.249 462.826C629.249 459.813 625.298 460.752 622.483 460.603L622.483 465.147" fill="#ffffff" fill-rule="nonzero" opacity="1" stroke="none" vectornator:layerName="path"/>
<path d="M637.101 461.937C640.212 461.937 641.347 464.011 641.249 467.171L634.582 467.171C634.582 469.147 635.273 470.48 637.199 470.529C638.483 470.579 639.323 469.937 639.619 469.097L641.002 469.492C640.459 470.875 639.175 471.715 637.199 471.715C634.335 471.715 632.854 469.887 632.903 466.776C632.952 463.764 634.187 461.937 637.101 461.937ZM639.668 465.937C639.965 462.974 635.915 462.134 634.878 464.554C634.73 464.9 634.582 465.394 634.582 465.937L639.668 465.937" fill="#ffffff" fill-rule="nonzero" opacity="1" stroke="none" vectornator:layerName="path"/>
<path d="M649.199 469.986C648.656 471.073 647.767 471.715 646.236 471.715C643.619 471.715 642.829 469.789 642.78 466.875C642.78 463.961 643.619 461.986 646.236 461.937C647.817 461.887 648.607 462.628 649.199 463.566C649.199 463.023 649.15 462.381 649.298 461.986L650.78 461.986L650.73 475.221L649.15 475.221L649.199 469.986ZM646.631 470.48C648.656 470.48 649.15 468.85 649.15 466.727C649.15 464.603 648.755 463.122 646.681 463.122C644.705 463.122 644.409 464.85 644.409 466.826C644.409 468.801 644.656 470.48 646.631 470.48" fill="#ffffff" fill-rule="nonzero" opacity="1" stroke="none" vectornator:layerName="path"/>
<path d="M656.063 471.715C651.668 471.912 653.397 465.986 653.051 462.134L654.631 462.134L654.631 468.06C654.631 469.591 654.977 470.529 656.557 470.48C660.113 470.381 658.78 465.492 659.026 462.134L660.557 462.134L660.607 471.517L659.125 471.517C659.076 471.023 659.175 470.282 659.026 469.887C658.483 470.974 657.644 471.665 656.063 471.715" fill="#ffffff" fill-rule="nonzero" opacity="1" stroke="none" vectornator:layerName="path"/>
<path d="M666.73 461.937C669.841 461.937 670.977 464.011 670.878 467.171L664.212 467.171C664.212 469.147 664.903 470.48 666.829 470.529C668.113 470.579 668.952 469.937 669.249 469.097L670.631 469.492C670.088 470.875 668.804 471.715 666.829 471.715C663.965 471.715 662.483 469.887 662.533 466.776C662.582 463.764 663.817 461.937 666.73 461.937ZM669.298 465.937C669.594 462.974 665.545 462.134 664.508 464.554C664.36 464.9 664.212 465.394 664.212 465.937L669.298 465.937" fill="#ffffff" fill-rule="nonzero" opacity="1" stroke="none" vectornator:layerName="path"/>
<path d="M678.335 464.455C678.187 462.776 674.088 462.579 674.039 464.455C674.78 467.073 679.718 465.048 679.915 468.9C680.113 472.752 672.508 472.554 672.162 469.295L673.545 469.048C673.742 470.826 678.335 471.27 678.384 469.048C677.891 466.282 672.804 468.307 672.557 464.603C672.36 461.789 676.607 461.492 678.582 462.529C679.175 462.875 679.619 463.468 679.767 464.258" fill="#ffffff" fill-rule="nonzero" opacity="1" stroke="none" vectornator:layerName="path"/>
<path d="M683.471 469.196C683.372 470.381 684.36 470.628 685.347 470.282L685.347 471.468C683.718 471.961 681.891 471.715 681.891 469.542L681.891 463.27L680.804 463.27L680.804 462.134L681.989 462.134L682.434 460.011L683.471 460.011L683.471 462.134L685.199 462.134L685.199 463.27L683.471 463.27L683.471 469.196" fill="#ffffff" fill-rule="nonzero" opacity="1" stroke="none" vectornator:layerName="path"/>
</g>
<g opacity="1" vectornator:layerName="v">
<path d="M700.607 471.517L698.829 471.517L696.854 463.418L694.829 471.517L693.051 471.517L690.384 462.134L691.965 462.134L693.891 470.233L696.014 462.134L697.693 462.134L699.718 470.233L701.792 462.134L703.323 462.134" fill="#ffffff" fill-rule="nonzero" opacity="1" stroke="none" vectornator:layerName="path"/>
<path d="M704.409 460.11L704.409 458.628L705.989 458.628L705.989 460.11L704.409 460.11ZM704.409 471.517L704.409 462.134L705.989 462.134L705.989 471.517L704.409 471.517" fill="#ffffff" fill-rule="nonzero" opacity="1" stroke="none" vectornator:layerName="path"/>
<path d="M710.039 469.196C709.94 470.381 710.928 470.628 711.915 470.282L711.915 471.468C710.286 471.961 708.459 471.715 708.459 469.542L708.459 463.27L707.372 463.27L707.372 462.134L708.557 462.134L709.002 460.011L710.039 460.011L710.039 462.134L711.767 462.134L711.767 463.27L710.039 463.27L710.039 469.196" fill="#ffffff" fill-rule="nonzero" opacity="1" stroke="none" vectornator:layerName="path"/>
<path d="M717.298 463.171C713.742 463.171 715.125 468.208 714.878 471.517L713.298 471.517L713.298 458.628L714.878 458.628L714.829 463.715C715.421 462.677 716.212 461.937 717.841 461.937C722.236 461.937 720.459 467.665 720.804 471.517L719.224 471.517L719.224 465.542C719.323 463.961 718.829 463.122 717.298 463.171" fill="#ffffff" fill-rule="nonzero" opacity="1" stroke="none" vectornator:layerName="path"/>
</g>
<g opacity="1" vectornator:layerName="w">
<path d="M613.965 492.85L613.965 480.603L623.199 480.603L623.199 481.986L615.594 481.986L615.594 485.887L622.705 485.887L622.705 487.221L615.594 487.221L615.594 491.517L623.594 491.517L623.594 492.85L613.965 492.85" fill="#ffffff" fill-rule="nonzero" opacity="1" stroke="none" vectornator:layerName="path"/>
<path d="M629.965 484.801C626.113 484.011 627.347 489.295 627.15 492.85L625.57 492.85L625.52 483.468L627.002 483.468C627.051 484.06 626.952 484.9 627.101 485.394C627.397 484.06 628.236 482.974 629.965 483.369L629.965 484.801" fill="#ffffff" fill-rule="nonzero" opacity="1" stroke="none" vectornator:layerName="path"/>
<path d="M635.841 484.801C631.989 484.011 633.224 489.295 633.026 492.85L631.446 492.85L631.397 483.468L632.878 483.468C632.928 484.06 632.829 484.9 632.977 485.394C633.273 484.06 634.113 482.974 635.841 483.369L635.841 484.801" fill="#ffffff" fill-rule="nonzero" opacity="1" stroke="none" vectornator:layerName="path"/>
<path d="M641.026 483.27C644.088 483.221 645.224 485.097 645.224 488.159C645.273 491.27 643.891 493.048 640.977 493.048C638.063 493.048 636.878 491.122 636.829 488.159C636.829 484.9 638.212 483.27 641.026 483.27ZM640.977 491.863C643.15 491.912 643.594 490.332 643.594 488.159C643.594 486.035 643.199 484.455 641.076 484.455C638.952 484.455 638.459 486.035 638.459 488.159C638.459 490.282 638.952 491.813 640.977 491.863" fill="#ffffff" fill-rule="nonzero" opacity="1" stroke="none" vectornator:layerName="path"/>
<path d="M651.594 484.801C647.742 484.011 648.977 489.295 648.78 492.85L647.199 492.85L647.15 483.468L648.631 483.468C648.681 484.06 648.582 484.9 648.73 485.394C649.026 484.06 649.866 482.974 651.594 483.369L651.594 484.801" fill="#ffffff" fill-rule="nonzero" opacity="1" stroke="none" vectornator:layerName="path"/>
</g>
<g opacity="1" vectornator:layerName="x">
<path d="M668.631 492.85L668.73 482.085C667.594 485.838 666.063 489.245 664.78 492.85L663.644 492.85L659.644 482.085L659.693 492.85L658.261 492.85L658.261 480.603L660.434 480.603L664.236 491.023C665.273 487.319 666.755 484.11 667.989 480.603L670.113 480.603L670.113 492.85L668.631 492.85" fill="#ffffff" fill-rule="nonzero" opacity="1" stroke="none" vectornator:layerName="path"/>
<path d="M676.483 483.27C679.594 483.27 680.73 485.344 680.631 488.505L673.965 488.505C673.965 490.48 674.656 491.813 676.582 491.863C677.866 491.912 678.705 491.27 679.002 490.431L680.384 490.826C679.841 492.208 678.557 493.048 676.582 493.048C673.718 493.048 672.236 491.221 672.286 488.11C672.335 485.097 673.57 483.27 676.483 483.27ZM679.051 487.27C679.347 484.307 675.298 483.468 674.261 485.887C674.113 486.233 673.965 486.727 673.965 487.27L679.051 487.27" fill="#ffffff" fill-rule="nonzero" opacity="1" stroke="none" vectornator:layerName="path"/>
<path d="M688.088 485.789C687.94 484.11 683.841 483.912 683.792 485.789C684.533 488.406 689.471 486.381 689.668 490.233C689.866 494.085 682.261 493.887 681.915 490.628L683.298 490.381C683.496 492.159 688.088 492.603 688.138 490.381C687.644 487.616 682.557 489.64 682.31 485.937C682.113 483.122 686.36 482.826 688.335 483.863C688.928 484.208 689.372 484.801 689.52 485.591" fill="#ffffff" fill-rule="nonzero" opacity="1" stroke="none" vectornator:layerName="path"/>
<path d="M696.977 485.789C696.829 484.11 692.73 483.912 692.681 485.789C693.421 488.406 698.36 486.381 698.557 490.233C698.755 494.085 691.15 493.887 690.804 490.628L692.187 490.381C692.384 492.159 696.977 492.603 697.026 490.381C696.533 487.616 691.446 489.64 691.199 485.937C691.002 483.122 695.249 482.826 697.224 483.863C697.817 484.208 698.261 484.801 698.409 485.591" fill="#ffffff" fill-rule="nonzero" opacity="1" stroke="none" vectornator:layerName="path"/>
<path d="M706.162 491.073C705.421 492.11 704.631 493.097 702.804 493.048C701.026 492.998 699.94 492.011 699.94 490.233C699.891 487.073 703.051 487.122 706.113 487.122C706.261 485.394 705.668 484.455 704.088 484.455C702.903 484.505 702.063 484.801 702.014 485.986L700.384 485.838C700.631 484.011 702.014 483.27 704.138 483.27C706.36 483.27 707.693 484.258 707.693 486.431L707.693 490.48C707.644 491.468 708.039 492.06 709.076 491.813L709.076 492.801C707.545 493.245 706.063 492.702 706.162 491.073ZM701.57 490.233C701.57 491.221 702.162 491.863 703.15 491.863C705.175 491.715 706.261 490.431 706.113 488.208C703.989 488.307 701.57 487.961 701.57 490.233" fill="#ffffff" fill-rule="nonzero" opacity="1" stroke="none" vectornator:layerName="path"/>
<path d="M717.817 483.468C717.323 489.64 719.841 497.937 712.384 496.356C711.249 496.06 710.508 495.369 710.212 494.233L711.792 493.986C712.533 496.307 716.73 495.566 716.187 492.603L716.187 491.122C715.644 492.159 714.755 492.9 713.175 492.9C710.508 492.9 709.817 490.875 709.817 488.159C709.817 485.394 710.607 483.369 713.323 483.319C714.755 483.27 715.693 484.11 716.236 485.048C716.286 484.554 716.236 483.912 716.335 483.468L717.817 483.468ZM713.718 491.764C715.496 491.764 716.187 490.184 716.187 488.159C716.187 486.085 715.496 484.455 713.718 484.455C711.792 484.455 711.446 486.134 711.446 488.159C711.446 490.184 711.742 491.764 713.718 491.764" fill="#ffffff" fill-rule="nonzero" opacity="1" stroke="none" vectornator:layerName="path"/>
<path d="M723.891 483.27C727.002 483.27 728.138 485.344 728.039 488.505L721.372 488.505C721.372 490.48 722.063 491.813 723.989 491.863C725.273 491.912 726.113 491.27 726.409 490.431L727.792 490.826C727.249 492.208 725.965 493.048 723.989 493.048C721.125 493.048 719.644 491.221 719.693 488.11C719.742 485.097 720.977 483.27 723.891 483.27ZM726.459 487.27C726.755 484.307 722.705 483.468 721.668 485.887C721.52 486.233 721.372 486.727 721.372 487.27L726.459 487.27" fill="#ffffff" fill-rule="nonzero" opacity="1" stroke="none" vectornator:layerName="path"/>
</g>
</g>
</g>
</g>
</svg>
